<?xml version="1.0" standalone="no"?>
<!DOCTYPE svg PUBLIC "-//W3C//DTD SVG 20010904//EN"
 "http://www.w3.org/TR/2001/REC-SVG-20010904/DTD/svg10.dtd">
<svg version="1.0" xmlns="http://www.w3.org/2000/svg"
 width="145.000000pt" height="146.000000pt" viewBox="0 0 145.000000 146.000000"
 preserveAspectRatio="xMidYMid meet">

<g transform="translate(0.000000,146.000000) scale(0.100000,-0.100000)"
fill="#000000" stroke="none">
<path d="M0 730 l0 -730 725 0 725 0 0 730 0 730 -725 0 -725 0 0 -730z m532
103 c32 -32 58 -63 58 -69 0 -14 -118 -124 -133 -124 -5 0 -7 -14 -3 -33 5
-25 2 -36 -14 -50 -25 -21 -53 -22 -70 -2 -16 19 -36 19 -44 0 -7 -18 -57 -20
-74 -3 -17 17 -15 54 3 72 19 19 19 30 0 46 -35 29 1 84 52 78 23 -2 33 4 56
37 29 40 94 105 105 105 4 0 32 -26 64 -57z m586 -11 c15 -16 33 -41 41 -56
15 -26 14 -28 -64 -106 -44 -44 -87 -80 -96 -80 -15 0 -169 150 -169 165 0 11
49 77 68 93 10 7 49 12 105 12 85 0 90 -1 115 -28z"/>
</g>
</svg>
